<?xml version="1.0" encoding="utf-8"?>
<!-- Generator: Adobe Illustrator 22.1.0, SVG Export Plug-In . SVG Version: 6.00 Build 0)  -->
<svg version="1.1" id="Layer_1" xmlns="http://www.w3.org/2000/svg" xmlns:xlink="http://www.w3.org/1999/xlink" x="0px" y="0px"
	 viewBox="0 0 1136.6 643.2" style="enable-background:new 0 0 1136.6 643.2;" xml:space="preserve">
<style type="text/css">
	.st0{fill:#EBF3FA;}
	.st1{fill:#ED985F;}
	.st2{fill:#233862;}
	.st3{fill:#FFB27D;}
	.st4{fill:#B5453C;}
	.st5{fill:#DD6D22;}
	.st6{fill:#9E332E;}
	.st7{fill:#ED7D2B;}
	.st8{fill:#F99746;}
	.st9{fill:#FFFFFF;}
	.st10{fill:#ADCBF9;}
	.st11{fill:#FCECDB;}
	.st12{fill:#F4D2B8;}
	.st13{fill:#86D1CD;}
	.st14{fill:#D86713;}
	.st15{fill:#EE9849;}
	.st16{fill:#F1A34F;}
	.st17{fill:#E78B37;}
	.st18{fill:#699DEE;}
	.st19{fill:#E9F3FE;}
	.st20{fill:#AFCDFB;}
	.st21{opacity:0.6;fill:#AFCDFB;}
	.st22{fill:#9E3732;}
	.st23{fill:#E49963;}
	.st24{fill:#163560;}
	.st25{fill:#599DAD;}
	.st26{fill:#6BB7BF;}
	.st27{fill:#5AA9AD;}
	.st28{fill:#D68D5D;}
	.st29{fill:#4A75CB;}
	.st30{fill:#2B478B;}
	.st31{fill:#F4A269;}
	.st32{fill:#C65447;}
	.st33{fill:#1C468A;}
	.st34{fill:#2E3552;}
	.st35{clip-path:url(#SVGID_2_);}
	.st36{fill:#2C3A64;}
	.st37{fill:#BC3F3F;}
	.st38{fill:#A02E2E;}
	.st39{fill:#E8945B;}
	.st40{fill:#D35C2B;}
	.st41{fill:#E58638;}
</style>
<title>status update</title>
<g>
	<path class="st0" d="M982.7,547.7c0,0,118.2-123.6,20-257.4C915.6,171.6,814,179.7,739.5,227.9c-31.7,20.5-146.6,113.8-224.5-7.1
		C408.7,56.1,63.9,44.7,131,298.2C163.5,420.9,0.9,425.4,67.9,548L982.7,547.7z"/>
	<g id="girl_2_3_">
		<path class="st1" d="M196.4,381.4c0,0-33.2,14.4-39.2,14.2c-6-0.3-43.1-11.3-43.1-11.3l0.9,6.4c0,0,28.6,16.5,38.6,17.4
			c9.9,0.9,43.5-8.8,46.8-10.9C203.8,395.1,205.9,383.5,196.4,381.4z"/>
		<path class="st2" d="M201.4,328.2c0,0,12.2-2.3,18.3,2.1c11,8.1,11.6,35.9,15.8,40c4.1,4.1,14.1,2.4,15,23.8
			c0.9,21.4-4,23.2,1.8,32.8c5.8,9.6-2.4,19.1-2.4,19.1s3.4-5.3,1.9-9.1c0,0-1.4,8.4-6.7,10.4c-5.3,2-6.1,3.4-7,6.3
			c0,0-45.6-23.4-45.6-39.9c0-16.6-9-33-4.6-40.1c0,0-2,3.1-2.2,6.5c0,0-2.6-5,1.9-9.7c4.6-4.7-5.3-14.4-3.9-25.6
			C184.7,337,190.1,328.6,201.4,328.2z"/>
		<path class="st3" d="M192.4,397.2c2.9,2,6.6,3.7,11.1,4.7c17.2,4,23.8-10.6,26.2-20.5c-2.3-1.3-4.5-1.6-5.8-1.8
			c-1.2-0.1-2.5-0.2-3.6-0.3c-1.9-1.5-4.8-7.5-5.4-16.9l-0.8,0.2l-13.5,3.7c0,0,0.6,4.3,0.9,8.4c0.2,3.2,0.3,6.2-0.3,7
			c-1.1,0.2-1.7,0.4-1.7,0.4s0,0,0,0C199.3,382.3,195.3,388.8,192.4,397.2z"/>
		<path class="st1" d="M200.6,366.3c0,0,0.6,4.3,0.9,8.4c7.7-0.8,11.2-8.1,12.6-12.1L200.6,366.3z"/>
		<path class="st3" d="M198.3,370.3c0,0,18.2-1,17.4-12.3c-0.8-11.3,1-19.1-10.7-18.9c-11.7,0.2-13.6,4.6-14.3,8.5
			C190.1,351.4,193.5,370.3,198.3,370.3z"/>
		<path class="st2" d="M190.8,341.2c2.6-3.6,4.7-3,6-2.1c9.6-6.2,16.5,1.4,16.5,1.4c1.8,8,8,12.3,8,12.3s-3.2,2.3-11,0.9
			c-2.4-0.4-4.6-1.9-6.5-3.8c3.5,5,7.9,8.4,7.9,8.4c-9.4-3.6-14-16-14.5-17.3c-1,1.1-3.1,3.4-3.6,5.6c-0.7,3-3.7,7.6-5.5,7.5
			C188.4,354.1,187,346.6,190.8,341.2z"/>
		<path class="st4" d="M235,434.2c1.6-8.4,7-42,1.6-52.8c-1.9-3.9-9.5-4.2-17.8-3.9c-2.6,1.7-12.4,8-16.5,7.2c0,0-0.1,0-0.2-0.1
			c-1.9-0.5-2.6-1.8-1-3c0,0-4.1-0.4-9.2,0.6c-2.9,0.5-10.7,4.6-10.7,4.6s3.9,7.1,9.7,9.5c-1,8.8,0.5,12.6,9.6,32.9
			c7.7,17.1-1,32.6-1,32.6s45.3,36.4,45.5,17.9C245.2,465.7,232.9,444.9,235,434.2z"/>
		<path class="st5" d="M197.3,501.4c-2.5-0.3-4.7-1.6-6.1-3.7c-0.2-0.3-0.5-0.7-0.7-1.1c-5.2-7.8-7.2-31.7-18.8-57.2
			c-2.8-6.2-13-7.3-15.7-14.3c0,0-6.8-22.7,13-23.4c19.8-0.7,53.1,63.2,53.6,69.9C223.2,478.1,235.8,505.7,197.3,501.4z"/>
		<path class="st6" d="M118.5,500.8h28.2c0,0,1.1-4.5-0.8-7.6c-1.6-2.7-1-4.3,0.2-6.5c-1.3,0.5-2.9,1-4.8,0.9
			c-1.4-0.1-2.9-0.7-4.2-1.5c-1.2,1.4-6.4,7.3-8,8.4C127.3,496,119,495.5,118.5,500.8z"/>
		<path class="st6" d="M232,390.2c0,0,3.7,33.4-20.1,40.4c-23.8,7-30.6-30.7-11.4-33.5C219.8,394.4,232,390.2,232,390.2z"/>
		<path class="st7" d="M155.4,408.3c-1.7,12.7-8.3,53-20,72.6c-3.8,6.3,9.5,9.9,9.6,9.9c1.8-0.5,4.7-3.3,6.1-4.5
			c9.5-8.6,28.8-32.8,28.8-52.3c0-9.5,0.2-27.6-6.7-32.2C168.9,398.9,156.1,403.3,155.4,408.3z"/>
		<path class="st8" d="M214.1,500.8c0,0-1-1.5-2.9-4.2c-2.2-3.3-4.6-9.8-7.5-18c-3.1-8.7-6.7-19.4-11.2-30.6
			c-1.4-3.4-2.9-6.9-4.5-10.4c-2.8-6.2-10.6-5.3-13.4-12.4c0,0-10.8-24.3,9-25c19.8-0.7,57.5,65,59.7,71.3
			C245.8,478.6,257.3,507.5,214.1,500.8z"/>
		<path class="st4" d="M139.2,500.8h28.2c0,0,1.1-4.5-0.8-7.6c-1.6-2.7-1-4.3,0.2-6.5c-1.3,0.5-2.9,1-4.8,0.9
			c-1.4-0.1-2.9-0.7-4.2-1.5c-1.2,1.4-6.4,7.3-8,8.4C148,496,139.7,495.5,139.2,500.8z"/>
		<path class="st7" d="M203.7,478.6c-3.1-8.7-6.7-19.4-11.2-30.6c1.2-8.4,3.7-15.8,8-18.8C200.6,429.2,211,461.5,203.7,478.6z"/>
		<path class="st8" d="M171.9,407.4c-1.7,12.7-4.1,53.9-15.8,73.5c-3.8,6.3,9.5,9.9,9.6,9.9c1.8-0.5,4.7-3.3,6.1-4.5
			c9.5-8.6,28.8-32.8,28.8-52.3c0-9.5-11.1-26.8-18-31.4C178.3,399.7,172.5,402.3,171.9,407.4z"/>
		<g>
			<path class="st6" d="M110.8,367.9l28.9-3.1c0.8-0.1,1.6,0.4,1.9,1.2l10.3,27.2c0.5,1.2-0.4,2.5-1.7,2.5l-28.7,1.2
				c-0.8,0-1.5-0.4-1.8-1.1l-10.6-25.3C108.8,369.3,109.5,368,110.8,367.9z"/>
			<path class="st4" d="M108.3,368.1l28.9-3.1c0.8-0.1,1.6,0.4,1.9,1.2l10.3,27.2c0.5,1.2-0.4,2.5-1.7,2.5l-28.7,1.2
				c-0.8,0-1.5-0.4-1.8-1.1l-10.6-25.3C106.3,369.5,107,368.2,108.3,368.1z"/>
			<path class="st6" d="M124.3,380.8c-0.4-1,0.1-1.8,1.1-1.8c1,0,2,0.8,2.4,1.8c0.4,1-0.1,1.8-1.1,1.8
				C125.7,382.6,124.6,381.8,124.3,380.8z"/>
			<path class="st6" d="M109.1,370.7c-0.2-0.5,0.1-0.9,0.5-0.9c0.5,0,1,0.4,1.2,0.9c0.2,0.5-0.1,0.9-0.5,0.9
				S109.3,371.2,109.1,370.7z"/>
		</g>
		<path class="st3" d="M229.8,381.4c0,0-40.1,14.8-46.1,14.4c-3.9-0.2-36.2-11.6-36.2-11.6s-2.4-3.7-5-4.5c0,0-4.6-2.1-5.9-2.5
			c-1.3-0.4-1.1,0-0.7,1.3c0.2,0.6,0.9,1.3,1.6,1.8c-2.2,0.6-4.4,1.4-5.4,1.6c-1.7,0.3-6.6,1.9-5.1,4.3c1.4,2.4,8.1,2.9,11,2.4
			c2.9-0.5,6.6,1.2,6.6,1.2s31.5,20.2,40.1,20.1c17.1-0.2,45.9-10.7,49.2-12.7C237.1,395.1,239.3,383.5,229.8,381.4z"/>
		<path class="st3" d="M111.2,381.9c0,0,2.9-4.6,3.8-4.8c2.9-0.6,2.9,3.2,2.3,5.7c-0.7,2.6-2.9,5.1-3.5,4.9
			C113.2,387.5,110.6,384.3,111.2,381.9z"/>
		<path class="st3" d="M111.1,382.8c0,0-0.9,5.1,4,7.8L111.1,382.8z"/>
		<path class="st9" d="M194.9,363.8c0,0,1.7-0.7,6.6-0.3c0,0-0.3,1.9-3.8,2.1C195.6,365.7,194.9,363.8,194.9,363.8z"/>
		<path class="st4" d="M209.2,388.7c0,0,3.6,11.3,15.9,13.9c0,0,20.3-6.3,10.2-20.1C235.3,382.5,225.3,375,209.2,388.7z"/>
	</g>
	<g>
		<g>
			<g>
				<path class="st10" d="M199.5,241.7c0-1.1,0-2.3,0.1-3.5c0.3-8.6,1.8-17,4.3-25.1c-2.1,0.1-4.2,0.2-6.2,0.3
					c-2,6.9-3.3,14-3.8,21.2c-0.2,2.1-0.2,4.3-0.3,6.4v0.6c0,2.2,0.1,4.3,0.2,6.5c2,0.9,4,1.8,6.1,2.6c-0.2-2-0.4-4.1-0.4-6.2
					C199.5,243.7,199.5,242.7,199.5,241.7z M386.4,202.7c-5-11.9-12.3-22.7-21.5-31.9c-9.2-9.2-19.9-16.5-31.9-21.5
					c-12.4-5.2-25.5-7.9-39-7.9c-13.5,0-26.7,2.6-39.1,7.9c-1.5,0.6-3,1.3-4.4,2c-2.4,1.1-4.7,2.4-7,3.7
					c-7.5,4.3-14.4,9.6-20.6,15.8c-1.3,1.3-2.5,2.6-3.8,4c-1.5,1.7-3,3.4-4.4,5.2c-2.2,2.9-4.3,5.8-6.2,8.9c-1.1,1.7-2.1,3.5-3,5.2
					c-1.5,2.8-2.9,5.6-4.1,8.6c-0.9,2.2-1.8,4.4-2.5,6.7c-0.5,1.4-0.9,2.8-1.3,4.2c-2,6.9-3.3,14-3.8,21.2c-0.2,2.1-0.2,4.3-0.3,6.4
					v0.6c0,2.2,0.1,4.3,0.2,6.5c0.1,1.8,0.3,3.5,0.5,5.3c1.1,9.4,3.5,18.5,7.2,27.3c5,11.9,12.3,22.7,21.5,31.9
					c9.2,9.2,19.9,16.4,31.9,21.5c12.4,5.2,25.5,7.9,39.1,7.9c13.5,0,26.7-2.6,39-7.9c11.9-5.1,22.7-12.3,31.9-21.5
					c9-9,16.1-19.4,21.1-31c0.1-0.3,0.3-0.6,0.4-0.9c0.6-1.3,1.1-2.6,1.6-4c4.2-11.2,6.3-23,6.3-35.1
					C394.3,228.1,391.6,215,386.4,202.7z M381.1,278.3c0,0.1,0,0.1-0.1,0.1c-0.6,1.5-1.3,3-2,4.4c-4.6,9.5-10.7,18.1-18.3,25.6
					c-8.7,8.7-18.8,15.5-30,20.2c-11.7,4.9-24,7.4-36.8,7.4c-12.8,0-25.1-2.5-36.8-7.4c-11.3-4.8-21.3-11.6-30-20.2
					c-8.7-8.7-15.5-18.8-20.3-30c-3.1-7.3-5.2-14.8-6.3-22.5c-0.3-1.7-0.5-3.4-0.6-5.1c-0.2-2-0.4-4.1-0.4-6.2c0-1-0.1-2-0.1-3
					c0-1.1,0-2.3,0.1-3.5c0.3-8.6,1.8-17,4.3-25.1c0.4-1.4,0.9-2.7,1.4-4.1c0.5-1.4,1-2.8,1.6-4.2c0.8-1.9,1.7-3.8,2.6-5.7
					c0.9-1.8,1.8-3.5,2.8-5.2c2.8-4.7,6-9.2,9.5-13.4c1.5-1.7,3-3.4,4.6-5c0.2-0.2,0.4-0.4,0.7-0.7c7.2-7.2,15.4-13.1,24.3-17.6
					c1.9-0.9,3.7-1.8,5.7-2.6c0.5-0.2,1-0.4,1.6-0.6c11.2-4.5,23-6.8,35.2-6.8c12.8,0,25.1,2.5,36.8,7.4c11.3,4.8,21.4,11.6,30,20.2
					c8.7,8.7,15.5,18.8,20.3,30c4.9,11.6,7.4,24,7.4,36.8C388.4,254.4,386,266.7,381.1,278.3z"/>
			</g>
			<g>
				<path class="st10" d="M405,261.9l-7.8-0.2c2.5,3.2,3.1,6.2,1.5,8.7c-1.6,2.6-5.3,4.7-10.8,6.3c-2,0.6-4.3,1.1-6.9,1.6
					c-6.8,1.2-15.3,1.9-25.2,2c-25.1,0.3-56.2-3.1-87.6-9.5c-21.2-4.4-40.7-9.7-57.1-15.6c-2.5-0.9-4.9-1.8-7.2-2.7
					c-1.4-0.5-2.7-1.1-4-1.7c-2.1-0.9-4.1-1.7-6.1-2.6c-1.4-0.6-2.7-1.2-4-1.9c-18.1-8.8-26.3-17.3-22.6-23.4
					c3-4.9,13.8-8.2,30.4-9.4c2-0.1,4-0.3,6.2-0.3c0.4-1.4,0.9-2.7,1.4-4.1c-2.2,0.1-4.3,0.2-6.3,0.3c-20.9,1.2-32.1,4.9-36.2,11.6
					c-4.7,7.8,1.7,18.2,22.4,28.3c2.9,1.4,5.9,2.8,9.1,4.2c2,0.8,4.1,1.7,6.2,2.5c1,0.4,2,0.8,3,1.1c2.4,0.9,4.9,1.8,7.5,2.7
					c16.1,5.6,34.8,10.6,55,14.8c28.1,5.8,56.1,9.2,80,9.7c3.5,0.1,6.9,0.1,10.2,0.1c8.6-0.1,16.2-0.6,22.8-1.5
					c2.5-0.3,4.8-0.7,7-1.2c10.2-2.1,16.9-5.4,19.6-9.8C407.4,268.8,407.2,265.5,405,261.9z"/>
			</g>
			<g>
				<path class="st10" d="M362.2,259.4c-0.1,0.2-0.2,0.4-0.3,0.5c-3.1,4.9-9.9,7.4-19.6,7.4c-4.6,0-9.9-0.6-15.6-1.7
					c-19-3.8-41.4-13.5-63.1-27.2c-21.4-13.5-39.5-29.2-51.2-44.4c-0.2-0.3-0.4-0.5-0.6-0.8c-1.1-1.5-2.1-2.9-3.1-4.3
					c-8.5-12.6-11.1-23.4-7-29.8c3.1-4.9,9.9-7.4,19.6-7.4c4.6,0,9.9,0.6,15.6,1.7c2.2,0.4,4.4,1,6.7,1.6c2.6,0.7,5.2,1.5,7.9,2.3
					c1.9-0.9,3.8-1.8,5.7-2.6c0.5-0.2,1-0.4,1.5-0.6c-2.8-1-5.5-1.9-8.2-2.7c-4.3-1.3-8.5-2.4-12.6-3.2c-20.5-4.2-35-1.3-40.9,8.1
					c-5.6,8.9-2.6,22.3,8.6,38c0.6,0.8,1.2,1.6,1.8,2.4c0.7,0.9,1.4,1.8,2.1,2.7c12.1,15.1,30.1,30.6,51.1,43.8
					c22.3,14,45.4,24,64.9,27.9c6.1,1.2,11.7,1.9,16.7,1.9c11.7,0,20.1-3.4,24.2-9.9c0.7-1.1,1.2-2.2,1.7-3.4H362.2z"/>
			</g>
			<g>
				<path class="st10" d="M258.5,333.6c-1.2,0-2.3-0.2-3.4-0.6c-17.2-6.2-9.3-57.2,7-101.9c15-41.4,39.3-83.3,56.6-83.3
					c1.2,0,2.3,0.2,3.4,0.6c9.8,3.6,10.4,21.1,9.2,35.2c-1.6,18.8-7.4,42.5-16.1,66.7C300.1,291.8,275.9,333.6,258.5,333.6z
					 M318.7,153.2c-10.9,0-33.7,30.5-51.6,79.8c-8.6,23.8-14.2,47-15.8,65.4c-1.7,19.8,1.8,28.3,5.7,29.7c0.5,0.2,1,0.3,1.6,0.3
					c10.9,0,33.7-30.5,51.6-79.8c8.6-23.8,14.2-47,15.8-65.4c1.7-19.8-1.8-28.3-5.7-29.7C319.8,153.3,319.2,153.2,318.7,153.2z"/>
			</g>
			<g>
				<path class="st10" d="M361.2,223.5c-19.2,0-36.7-1.8-52.3-5.5c-18.7-4.3-34.8-11.3-47.8-20.6c-22.4-16-27.9-33.5-28.1-34.2
					l5.1-1.6c0.1,0.2,5.4,16.7,26.5,31.7c19.6,13.9,57.3,29.3,125.2,23.5l0.5,5.3C380.2,223,370.5,223.5,361.2,223.5z"/>
			</g>
			<g>
				<path class="st10" d="M342.3,327.8c-37.2-27.7-73.9-40.1-98.1-45.6c-26.2-6-43.8-5.4-43.9-5.4l-0.2-5.3c0.7,0,18.4-0.6,45.3,5.5
					c24.7,5.6,62.2,18.3,100.1,46.5L342.3,327.8z"/>
			</g>
		</g>
	</g>
	<g>
		<path class="st8" d="M1048.3,525.2c0,5.8-2.4,11-6.1,14.8c-3.8,3.8-9,6.1-14.8,6.1H856.5v-40.7h172.2c1.1,0,2.1,0.1,3.2,0.3
			C1041.2,507.3,1048.3,515.4,1048.3,525.2z"/>
		<path class="st11" d="M888.2,525.6c0,5.6-2.3,10.8-6,14.5c0,0,0,0-0.1,0.1c-3.7,3.7-8.9,6-14.5,6H673.5v-40.7h194.6
			c5.6,0,10.8,2.3,14.4,6.1C886,515.2,888.2,520.1,888.2,525.6z"/>
		<path class="st7" d="M904.3,543.1c0,0.8-0.3,1.6-0.9,2.2c-0.6,0.6-1.3,0.9-2.2,0.9H666.6c-1.7,0-3-1.4-3-3c0-0.8,0.3-1.6,0.9-2.2
			c0.6-0.6,1.3-0.9,2.2-0.9h234.7C903,540.1,904.3,541.4,904.3,543.1z"/>
		<path class="st7" d="M904.3,508.5c0,0.8-0.3,1.6-0.9,2.2c-0.6,0.6-1.3,0.9-2.2,0.9H666.6c-1.7,0-3-1.4-3-3c0-0.8,0.3-1.6,0.9-2.2
			c0.6-0.6,1.3-0.9,2.2-0.9h234.7C903,505.5,904.3,506.8,904.3,508.5z"/>
		<polygon class="st12" points="673.5,525.8 699.5,526.5 673.5,526.9 		"/>
		<polygon class="st12" points="673.5,532.2 735.4,532.9 673.5,533.3 		"/>
		<path class="st7" d="M1031.8,505.7l-56.2,40.4H856.5v-40.7h172.2C1029.7,505.5,1030.8,505.6,1031.8,505.7z"/>
	</g>
	<g>
		<g>
			<path class="st13" d="M356.1,546.2H242.3v-47.8h115.3c12.8,0,23.2,10.4,23.2,23.2v0C380.8,535.1,369.7,546.2,356.1,546.2z"/>
			<path class="st11" d="M241,546.2H110.2v-47.8h131.3c13.1,0,23.6,10.6,23.6,23.6v0C265.2,535.3,254.4,546.2,241,546.2z"/>
			<path class="st13" d="M273.2,546.2H106.6c-2,0-3.6-1.6-3.6-3.6v0c0-2,1.6-3.6,3.6-3.6h166.7c2,0,3.6,1.6,3.6,3.6v0
				C276.8,544.6,275.2,546.2,273.2,546.2z"/>
			<path class="st13" d="M273.2,505.5H106.6c-2,0-3.6-1.6-3.6-3.6l0,0c0-2,1.6-3.6,3.6-3.6h166.7c2,0,3.6,1.6,3.6,3.6v0
				C276.8,503.9,275.2,505.5,273.2,505.5z"/>
		</g>
		<polygon class="st12" points="110.2,522.2 129,523 110.2,523.5 		"/>
		<polygon class="st12" points="110.2,529.7 154.9,530.6 110.2,531 		"/>
	</g>
	<g>
		<g>
			<path class="st14" d="M426,326.1l-17.4,207.4c0,0-1.8,12.6,7.5,12.6c15.4,0,76.5,0,76.5,0s-11.6-2.6-11.4-8.5
				c0.2-6.9,20.4-213.5,20.4-213.5L426,326.1z"/>
			<path class="st15" d="M497.6,542.4c-3,0-61.4,0.2-76.4,0c-6.5-0.1-7.7-5.8-7.7-9.5c0-1.8,0.2-3.1,0.2-3.1l0.5-5.4l1.2-13.7
				l1-12.1l1.3-15.6l1.1-13.2l12.4-147.4l75.6-2c0,0-8.5,86.4-14.5,149.4c-0.7,7-1.3,13.7-1.9,20c-0.2,2-0.4,4-0.6,5.9
				c-0.6,6-1.1,11.4-1.5,16.2c-0.2,2.5-0.5,4.9-0.6,7.1c-0.8,8.5-1.2,13.9-1.2,14.9c0,0.6,0,1.2,0.1,1.7
				C487.7,542.2,496.5,542.4,497.6,542.4z"/>
			<polygon class="st16" points="242.5,213.2 285,383.9 290.8,407.3 310.6,486.8 678.3,486.8 605.3,213.2 			"/>
			<polygon class="st15" points="242.5,213.2 236.6,215.2 302.8,492.7 310.6,486.8 			"/>
			<polygon class="st14" points="302.8,492.7 668.2,492.7 678.3,486.8 310.6,486.8 			"/>
			
				<rect x="431.1" y="542.5" transform="matrix(-1 -1.224647e-16 1.224647e-16 -1 941.3065 1088.6808)" class="st16" width="79.1" height="3.8"/>
			<polygon class="st16" points="660.5,436.4 600.8,216.8 241.9,216.8 241.9,213.2 605.3,213.2 664.8,435.9 			"/>
			<polygon class="st14" points="490.1,492.7 489.7,495.6 415.3,510.6 416.3,498.5 416.8,492.7 			"/>
			<path class="st17" d="M497.6,542.4c-3,0-61.4,0.2-76.4,0c-6.5-0.1-7.7-5.8-7.7-9.5l74.1-13.9c-0.8,8.5-1.2,13.9-1.2,14.9
				c0,0.6,0,1.2,0.1,1.7C487.7,542.2,496.5,542.4,497.6,542.4z"/>
			<polygon class="st17" points="472.1,431.4 310.6,486.8 290.8,407.3 			"/>
			<polygon class="st18" points="242.5,213.2 605.3,213.2 664.2,433.1 295.3,433.1 			"/>
		</g>
		<path class="st14" d="M504.2,460.9c-1-5.4-6.3-9.8-11.7-9.8c-5.4,0-8.9,4.4-7.9,9.8c1,5.4,6.3,9.8,11.7,9.8
			S505.2,466.3,504.2,460.9z"/>
		<polygon class="st19" points="647.1,423.6 307.4,423.6 268.9,270.3 265.9,258.5 263.4,248.5 257.5,225 592.4,225 598.8,248.5 
			601.6,258.5 604.9,270.3 		"/>
		<polygon class="st20" points="598.8,248.5 263.4,248.5 257.5,225 592.4,225 		"/>
		<g>
			<path class="st19" d="M271.4,235.6c-0.4-1.6,0.6-2.9,2.2-2.9c1.6,0,3.3,1.3,3.7,2.9c0.4,1.6-0.6,2.9-2.2,2.9
				C273.4,238.6,271.8,237.2,271.4,235.6z"/>
			<path class="st19" d="M281.1,235.6c-0.4-1.6,0.6-2.9,2.2-2.9c1.6,0,3.3,1.3,3.7,2.9c0.4,1.6-0.6,2.9-2.2,2.9
				C283.2,238.6,281.5,237.2,281.1,235.6z"/>
			<path class="st19" d="M291.6,235.6c-0.4-1.6,0.6-2.9,2.2-2.9c1.6,0,3.3,1.3,3.7,2.9c0.4,1.6-0.6,2.9-2.2,2.9
				C293.7,238.6,292,237.2,291.6,235.6z"/>
		</g>
	</g>
	<g>
		<path class="st18" d="M314.7,400.2c0-6.8,5.7-12.3,12.7-12.3s12.7,5.5,12.7,12.3c0,6.8-5.7,12.3-12.7,12.3
			S314.7,406.9,314.7,400.2z"/>
		<path class="st19" d="M326.3,392.9l7.3,6.3c0.6,0.6,0.6,1.5,0,2.1l-7.2,6c-0.9,0.8-2.4,0.2-2.4-1l-0.1-12.3
			C323.9,392.8,325.4,392.1,326.3,392.9z"/>
		<path class="st20" d="M613.3,401.6c0,0.6-0.3,1.2-0.7,1.6c-0.4,0.4-1,0.7-1.6,0.7H352.2c-1.3,0-2.3-1-2.3-2.3
			c0-0.6,0.3-1.2,0.7-1.6c0.4-0.4,1-0.7,1.6-0.7H611C612.2,399.3,613.3,400.3,613.3,401.6z"/>
		<path class="st18" d="M381,399.3v4.6h-28.8c-1.3,0-2.3-1-2.3-2.3c0-0.6,0.3-1.2,0.7-1.6c0.4-0.4,1-0.7,1.6-0.7H381z"/>
	</g>
	<polygon class="st20" points="581.3,380.2 356.3,380.2 330.8,288.1 328.9,281.1 327.2,275.1 323.3,260.9 545.1,260.9 549.3,275.1 
		551.2,281.1 553.3,288.1 	"/>
	<g>
		<polygon class="st19" points="546.9,312 472.9,312 464.6,281.8 463.9,279.4 463.4,277.5 462.1,272.8 535,272.8 536.4,277.5 
			537,279.4 537.7,281.8 		"/>
		<g>
			<polygon class="st21" points="503.4,304.5 477.7,304.5 474.8,294 474.6,293.2 474.4,292.5 474,290.9 499.2,290.9 499.7,292.5 
				499.9,293.2 500.2,294 			"/>
			<polygon class="st21" points="536,304.5 510.4,304.5 507.5,294 507.3,293.2 507.1,292.5 506.6,290.9 531.9,290.9 532.4,292.5 
				532.6,293.2 532.8,294 			"/>
			<path class="st20" d="M517.7,278.6h-46.9c-0.4,0-0.7-0.3-0.7-0.7l0,0c0-0.4,0.3-0.7,0.7-0.7h46.9c0.4,0,0.7,0.3,0.7,0.7l0,0
				C518.3,278.3,518,278.6,517.7,278.6z"/>
			<path class="st20" d="M519.4,282.2h-46.9c-0.4,0-0.7-0.3-0.7-0.7l0,0c0-0.4,0.3-0.7,0.7-0.7h46.9c0.4,0,0.7,0.3,0.7,0.7l0,0
				C520.1,281.9,519.8,282.2,519.4,282.2z"/>
		</g>
	</g>
	<path class="st20" d="M527.5,287.4h-52.8c-0.4,0-0.8-0.3-0.8-0.8l0,0c0-0.4,0.3-0.8,0.8-0.8h52.8c0.4,0,0.8,0.3,0.8,0.8l0,0
		C528.2,287.1,527.9,287.4,527.5,287.4z"/>
	<g>
		<polygon class="st19" points="560.7,359.4 486.8,359.4 478.4,329.1 477.7,326.8 477.2,324.8 475.9,320.2 548.8,320.2 550.2,324.8 
			550.8,326.8 551.5,329.1 		"/>
		<g>
			<polygon class="st21" points="517.2,351.9 491.5,351.9 488.6,341.4 488.4,340.6 488.2,339.9 487.8,338.3 513.1,338.3 
				513.6,339.9 513.8,340.6 514,341.4 			"/>
			<polygon class="st21" points="549.9,351.9 524.2,351.9 521.3,341.4 521.1,340.6 520.9,339.9 520.4,338.3 545.7,338.3 
				546.2,339.9 546.4,340.6 546.7,341.4 			"/>
			<path class="st20" d="M531.5,325.9h-46.9c-0.4,0-0.7-0.3-0.7-0.7l0,0c0-0.4,0.3-0.7,0.7-0.7h46.9c0.4,0,0.7,0.3,0.7,0.7l0,0
				C532.1,325.6,531.8,325.9,531.5,325.9z"/>
			<path class="st20" d="M533.2,329.5h-46.9c-0.4,0-0.7-0.3-0.7-0.7l0,0c0-0.4,0.3-0.7,0.7-0.7h46.9c0.4,0,0.7,0.3,0.7,0.7l0,0
				C533.9,329.2,533.6,329.5,533.2,329.5z"/>
			<path class="st20" d="M534.5,333.1h-46.9c-0.4,0-0.7-0.3-0.7-0.7l0,0c0-0.4,0.3-0.7,0.7-0.7h46.9c0.4,0,0.7,0.3,0.7,0.7l0,0
				C535.1,332.8,534.8,333.1,534.5,333.1z"/>
		</g>
	</g>
	<g>
		<path class="st8" d="M169.1,520.5c0,0-4.1,2-5.4,5.2c-0.2,0.6-0.4,1.2-0.4,1.8c-0.2,4.3,0,14,0,14l-12.1-4.8l-12,4.8v-13.1
			c0-2.5,1-4.9,3-6.5c0.9-0.8,2.1-1.3,3.3-1.3H169.1z"/>
		<path class="st7" d="M169.1,520.5c0,0-4.1,2-5.4,5.2l-24.2,0.2c0,0,0.9-4.6,5.9-5.4H169.1z"/>
	</g>
	<g>
		<g>
			<g>
				<path class="st4" d="M763.3,505.8h139.2V444H761.3c-16.6,0-30,13.4-30,30v0C731.4,491.6,745.7,505.8,763.3,505.8z"/>
				<path class="st11" d="M905.5,505.8h160.2V444H904.8c-16.9,0-30.6,13.7-30.6,30.6v0C874.2,491.8,888.2,505.8,905.5,505.8z"/>
				<path class="st4" d="M864.4,505.8h205.5c2.6,0,4.6-2.1,4.6-4.6l0,0c0-2.6-2.1-4.6-4.6-4.6H864.4c-2.6,0-4.6,2.1-4.6,4.6l0,0
					C859.8,503.8,861.9,505.8,864.4,505.8z"/>
				<path class="st4" d="M864.4,453.2h205.5c2.6,0,4.6-2.1,4.6-4.6l0,0c0-2.6-2.1-4.6-4.6-4.6H864.4c-2.6,0-4.6,2.1-4.6,4.6l0,0
					C859.8,451.1,861.9,453.2,864.4,453.2z"/>
			</g>
			<polygon class="st12" points="1065.7,474.9 1042.4,475.9 1065.7,476.6 			"/>
			<polygon class="st12" points="1065.7,460.7 1010.4,461.7 1065.7,462.3 			"/>
		</g>
		<g>
			<path class="st4" d="M1011,461.5c0,0,3.6,2,4.9,5.2c0.2,0.6,0.4,1.2,0.4,1.8c0.2,4.3,0,14,0,14l10.8-4.8l10.7,4.8v-13.1
				c0-2.5-0.9-4.9-2.6-6.5c-0.8-0.8-1.8-1.3-3-1.3H1011z"/>
			<path class="st22" d="M1011,461.5c0,0,3.6,2,4.9,5.2l21.6,0.2c0,0-0.8-4.6-5.3-5.4H1011z"/>
		</g>
	</g>
	<g>
		<path class="st23" d="M713.2,374.8c0,0-7.7,4.4-9.8,4.4c-2.2,0-10.6-1.6-13-0.4c-2.4,1.2-6.6,6-7.4,7.6c-1.4,2.8,5.8,1.6,9.2-0.8
			c0.5-0.4,1.1-0.5,1.7-0.4c1.8,0.4,5.4,1.1,7.2,0.4c2.4-0.9,15-1.9,15-1.9L713.2,374.8z"/>
		<path class="st24" d="M704.5,532.7c0,0-0.8,13.3-3.4,13.5c-0.3,0-13.1,0-13.1,0l-16.3-0.1c0,0,0.1-3.9,4.9-4.8
			c4.8-0.8,12.7-4.2,15.6-10.5C695.2,524.3,704.5,532.7,704.5,532.7z"/>
		<path class="st7" d="M771.6,315.3c0,0-8,56.6-21.2,61.7c-6.5,2.5-35.3,8.2-43.8,8.7c0,0-2.1-1.7-1.6-8.6c0,0,30.1-11.1,34.4-17.1
			c6.4-9-4-36.6,4-45C751.6,306.6,765,303,771.6,315.3z"/>
		<path class="st25" d="M769,434.6c-2.3,3.9-5,7.6-7.8,11.1c-8.6,10.8-17.9,19.7-19.5,28.2c-0.3,1.7-0.8,3.5-1.5,5.4
			c-0.7,1.9-1.5,4-2.5,6.1c-3.6,7.9-9.1,16.7-14.5,24.8c-9.4,13.9-18.2,25.5-18.2,25.5l-16.2-0.7c0.6-1.6,7.7-20.8,17.1-44.3
			c3.8-9.5,7.9-19.6,11.8-29.4c0.5-1.3,1-2.6,1.6-3.9c1.2-3,2.4-5.9,3.5-8.8c8.9-22,15.9-39.6,15.9-39.6s35.4-13.4,39.1-4.7
			C780.9,411.4,778.5,418.5,769,434.6z"/>
		<path class="st24" d="M741.9,494.5c0,0,11.3,7.2,10.2,9.6c-0.1,0.3-6.4,11.4-6.4,11.4l-8,14.2c0,0-3.4-2-1.8-6.6
			c1.6-4.6,2.6-13.1-1.5-18.7C730.1,498.6,741.9,494.5,741.9,494.5z"/>
		<path class="st26" d="M736.4,507.2c0,0,7-6.2,8.3-10.8c0,0-29-34.7-35.3-42.5c-0.3-0.4-0.2-0.7,0.2-1.2
			c4.7-5.3,57.5-16.2,64.4-26.9c2.4-3.7,3.7-7.2,4.5-10.3c1.6-6.5,0.3-11.1,0.3-11.1l-52.6-1.5c0,0-43.8,27.3-48.8,45.9
			C672.3,467.5,736.4,507.2,736.4,507.2z"/>
		<path class="st27" d="M709.6,452.8c4.7-5.3,57.5-16.2,64.4-26.9c2.4-3.7,3.7-7.2,4.5-10.3v-6.7l-22.4-3.5c0,0-6.3,19.5-25.1,26.8
			C713.3,439.1,710,451.3,709.6,452.8z"/>
		<path class="st23" d="M740.5,311.7c10.7,2.8,28.3-7.1,28.3-7.1s-6.9-4.6-9.4-14.7c-0.1-0.5-0.2-1-0.3-1.6
			c-1.1-0.2-3.2-0.7-5.5-1.2l-8.1,7.3c0,0,0.2,3,1.2,8.2c0.2,0.9,0.4,1.9,0.6,2.9C742.9,308.3,740.5,311.7,740.5,311.7z"/>
		<path class="st8" d="M780.1,355.9c-1.5,20.5,0.5,51.7-1.2,57.1c-1.5,4.7-18.5,1.9-25.3,0.3c-2.5-0.6-5.6-1.4-8.7-2.4
			c-8.8-2.7-18.3-6.6-19.4-9.5c0-0.1-0.1-0.2-0.1-0.3c-0.1-0.4-0.1-0.8,0-1.2c0.3-1.5,1.7-3.1,1.8-6.7c0.2-4.1,0.1-8.8,0.3-14
			c0-0.6,0-1.2,0.1-1.8l0-0.2c0-0.1,0-0.2,0-0.3c0.1-5.7,0.4-11.8,0.8-17.7c0.2-3.8,0.5-7.5,0.8-11c0.8-9.2,1.8-17.4,3.2-22.5
			c2.2-8.4,7.1-13.9,11.6-17.9l3.2-2.8c3.6,0.8,7.9,0.3,11.7-1.6c4.2-2,5.6-3.4,6.4-2.9C774.9,307.9,781.9,330.8,780.1,355.9z"/>
		<path class="st7" d="M744.8,410.9c-8.8-2.7-18.3-6.6-19.4-9.5c0-0.1-0.1-0.2-0.1-0.3c0-0.4,0-0.8,0-1.2c0.3-1.5,1.7-3.1,1.8-6.7
			c0.2-4.1,0.1-8.8,0.3-14c0-0.6,0-1.2,0.1-1.8l0-0.2c0-0.1,0-0.2,0-0.3l35.5-45.2C763.1,331.8,786.9,381.4,744.8,410.9z"/>
		<path class="st28" d="M745.4,294.4c0,0,0.2,3,1.2,8.2c7.9-2.6,11.5-9.7,12.8-12.8c-0.1-0.5-0.2-1-0.3-1.6
			c-1.1-0.2-3.2-0.7-5.5-1.2L745.4,294.4z"/>
		<path class="st23" d="M744.4,299c0,0,17.3-2.9,15.4-13.7c-2-10.8-1.1-18.4-12.2-17c-11.1,1.4-12.5,5.9-12.8,9.6
			C734.6,281.8,739.8,299.5,744.4,299z"/>
		<g>
			
				<rect x="668.1" y="350.3" transform="matrix(0.9511 -0.309 0.309 0.9511 -82.0092 224.8926)" class="st29" width="1.6" height="42.1"/>
			
				<rect x="674.6" y="388.5" transform="matrix(0.9998 -2.135566e-02 2.135566e-02 0.9998 -8.1653 14.9673)" class="st29" width="44.1" height="2.6"/>
		</g>
		<path class="st23" d="M717.9,392.7c0,0-14.2,3.7-19.5,3.3c-5.3-0.4-9.7-2.9-10.4-4.2c-0.7-1.3-2.1-3.7,1.5-3.2
			c3.6,0.4,8.6,1.2,8.7,0.5c0.2-0.7-3-0.6-3-0.6s-0.9-1.4,0.2-1.4s4.6-1,5.9-0.3c1.3,0.6,2.5,3,3.4,2.9c0.9-0.1,11.9-4.9,11.9-4.9
			L717.9,392.7z"/>
		<path class="st8" d="M768.1,317.6c0,0-1.7,57.2-14.2,63.7c-6.2,3.2-34.2,12-42.6,13.5c0,0-2.3-1.5-2.5-8.3
			c0,0,28.7-14.3,32.3-20.8c5.3-9.6-8-35.9-0.9-45.2C747.2,311.2,760.2,306.2,768.1,317.6z"/>
		<path class="st30" d="M759.4,289.9c0,0,0.2-3.7-2.1-5.8c0,0,0.8-3.7-0.7-4.3s-1.8,2.5-2.4,2c-0.7-0.5-3.7-2.8-4.9-6.2
			c-1.3-3.4-13,0.7-14.4,1.3c-1.4,0.6-5.8-1.6-6.6-3.5c0,0,2.4-2,3.5-3.4c1.1-1.5,8.8-11.3,19.5-8.5c10.7,2.8,12.2,7.9,11.6,12.3
			C762.3,278.2,763.8,288.4,759.4,289.9z"/>
	</g>
	<g>
		<g>
			<path class="st31" d="M875.8,337.3c0,0,5.5,8.1,8.6,25.2c2.7,15,5.2,20.5,9.1,23.6c4,3.1,26.1,12.1,26.1,12.1l-1.7,3.9
				c0,0-32.4-4.4-36-9.8c-3.6-5.4-17.5-37.4-16.4-44.8C866.6,340.2,875.8,337.3,875.8,337.3z"/>
			<g>
				<path class="st3" d="M955.2,516c-0.3,3.2,4.1,3.9,9.2,4.2c5.1,0.3,3.6,1.3,10.5,2.6c7,1.3,9.8-0.6,10.3-1.6
					c0.4-0.8-2.8-2.1-6.3-3.6c-0.4-0.2-0.9-0.4-1.3-0.6c-3.9-1.7-6.1-5.2-9.1-8.4c-2.9-3.1-5.6-12.9-5.6-12.9l-9.5-2
					c0,0,2.7,8.8,3.6,12.6c0.5,2.2-0.3,4.7-1,6.6C955.7,513.8,955.3,514.9,955.2,516z"/>
				<path class="st32" d="M964.4,520.2c5.1,0.3,3.6,1.3,10.5,2.6c7,1.3,9.8-0.6,10.3-1.6c0.4-0.8-2.8-2.1-6.3-3.6l-0.1,0.1
					c0,0-4.9,1.7-10.6,0.1c-4.6-1.3-9.1-4-12.3-4.9c-0.4,1-0.8,2.1-0.9,3.2C954.9,519.2,959.3,519.9,964.4,520.2z"/>
			</g>
			<path class="st24" d="M860.7,403.5c0,0,63-4.7,74.9,2.7s30.9,94.7,30.9,94.7s-1.2,0.9-3.8,1.2c-2.4,0.3-7.8-1.2-7.8-1.2
				s-27.4-39-29.3-48.9c-1.9-9.8-1.5-18.6-5.8-18.8c-4.4-0.2-59.1,6.6-67.4-7.9c-8.3-14.6-1.4-29-1.4-29L860.7,403.5z"/>
			<g>
				<path class="st3" d="M931,526.1c-0.3,3.2,4.1,3.9,9.2,4.2c5.1,0.3,3.6,1.3,10.5,2.6c7,1.3,9.8-0.6,10.3-1.6
					c0.5-0.8-2.8-2.1-6.3-3.6c-0.4-0.2-0.9-0.4-1.3-0.6c-3.9-1.7-6.1-5.2-9.1-8.4c-2.9-3.1-5.6-12.9-5.6-12.9l-9.5-2
					c0,0,2.7,8.8,3.6,12.6c0.5,2.2-0.3,4.7-1,6.6C931.5,524,931.1,525,931,526.1z"/>
				<path class="st32" d="M940.2,530.3c5.1,0.3,3.6,1.3,10.5,2.6c7,1.3,9.8-0.6,10.3-1.6c0.5-0.8-2.8-2.1-6.3-3.6l-0.1,0.1
					c0,0-4.9,1.7-10.6,0.1c-4.6-1.3-9.1-4-12.3-4.9c-0.4,1-0.8,2.1-0.9,3.2C930.8,529.3,935.1,530.1,940.2,530.3z"/>
			</g>
			<path class="st33" d="M848.3,407.4c0,0,56,2.7,67.6,10.6c11.6,7.9,27.2,95.9,27.2,95.9s-1.2,0.9-3.8,1.1
				c-2.4,0.2-7.8-1.5-7.8-1.5s-25.8-40.1-27.4-50c-1.5-9.9-0.7-18.7-5.1-19.1c-4.4-0.4-59.3,4.3-67-10.5
				C824.3,419,848.3,407.4,848.3,407.4z"/>
			<path class="st4" d="M868.3,284.2c-2.5-1.6-5.6-2-7.7-2c0.6-0.5,1.7-0.7,1.7-0.7c-1.3-0.3-4.4,0.8-4.4,0.8
				c-18.2-8.4-23,18.9-23,25.3c0,6.4-0.5,13.8-10.2,18.9c-19.1,10.1-4.9,30.8-4.9,30.8c0.1,0.1,12.7,16.8,12.7,16.8
				c-0.1-5.2,20.4-32.7,33.3-40.1c3.3-4.3,4.9-12,5-12.7c-0.9,6.2-2.2,9.6-3.3,11.5C878.7,323.8,874.9,288.5,868.3,284.2z"/>
			<path class="st3" d="M846,327.9c0,0,5.2-0.5,10.4,0c3.5,0.3,7.1,1.4,9.1,2.3c4.9,2.1,4.4,10.8-5.9,9.2
				C849.2,337.8,845.3,330.5,846,327.9z"/>
			<path class="st3" d="M865,334.3c0.1,0,1.5,7.5-5.3,7.2c-4.5-0.2-14.1-5.6-13.2-9.4c0.4-1.8,3.8-6.5,4.4-17.2l0.8,0.2l13.6,3.7
				c0,0-0.6,4.3-0.9,8.4C864.3,330.6,864.3,333.9,865,334.3z"/>
			<path class="st31" d="M865.4,318.8c0,0-0.6,4.3-0.9,8.4c-7.7-0.7-11.3-8.1-12.7-12.1L865.4,318.8z"/>
			<path class="st4" d="M850.5,313.5c0,0-3.6-6.7-4.2-12.2c-0.4-4,2.5-18.3,16.9-15.2c0,0,4.2,0.7,8,3.6c3,2.3,7.3,7.3,1.3,19.5
				l-1.6,4.2L850.5,313.5z"/>
			<path class="st3" d="M867.7,322.8c0,0-18.3-0.9-17.6-12.3c0.7-11.4-1.1-19.2,10.6-19.1c11.7,0.1,13.7,4.6,14.4,8.5
				C875.8,303.7,872.5,322.7,867.7,322.8z"/>
			<path class="st4" d="M869.1,291.7c0,0-5.9,13-13.7,14.5c-7.8,1.5-11-0.8-11-0.8s6.2-4.3,8-12.4
				C852.4,293,865.8,285.1,869.1,291.7z"/>
			<path class="st4" d="M867.8,292.7c0,0,3.5,3.2,4.3,6.2c0.7,3,0.7,9,2.5,8.9c0,0,4.4-8.8,0.5-14.2
				C870.9,287.8,867.8,292.7,867.8,292.7z"/>
			<path class="st33" d="M886,404.5c-1.5,1.8-6.1,2.3-11,3.1c-3.9,0.6-8,1.4-10.9,3.2c-6.6,3.9-28.2,17-34.5,16.4
				c-2.4-0.2-2-4.9-0.5-11.1c2.3-9.8,7.2-23.4,7.2-29.3c0-3.2,1.1-10.9,2.5-19.6c0.1-0.7,0.2-1.4,0.4-2.1c2.8-17,6.8-37,6.8-37
				s4.4,9.6,12.9,9.6c8.5,0,6.6-7.3,6.6-7.3s7.8,0.9,9.6,2.9c1.8,2,6.5,10.6,7.4,12.9c0,0,0.2,3-7.2,4.4c0,0,1.8,8.1,2,13.5
				c0.2,4-2.7,16.4-3.5,24.2c-0.3,2.7-0.3,4.9,0.1,5.9c0.6,1.3,2.4,2.5,4.5,3.7C882.6,400,887.8,402.4,886,404.5z"/>
			<path class="st24" d="M878.5,397.6c4.7,8.1-12.8,10.5-15.7,12.2c-6.6,3.9-26.8,17.9-33.1,17.3c-2.4-0.2-2-4.9-0.5-11.1
				c2.3-9.8,7.2-23.4,7.2-29.3c0-3.2,1.1-10.9,2.5-19.6l7.6-7.3c0,0,8.1,21.1,15.9,24.5c4.1,1.8,8.3,3,11.4,3.7
				c-0.3,2.7-0.3,4.9,0.1,5.9C874.5,395.1,876.4,396.4,878.5,397.6z"/>
			<g>
				<rect x="888" y="403.6" class="st6" width="17.6" height="2.1"/>
				<path class="st6" d="M901.9,405.4c0.2-0.7,16.2-25.9,16.2-25.9h35.7l-17.9,25.2L901.9,405.4z"/>
				<path class="st4" d="M903.4,405.7c0.2-0.7,16.3-26.2,16.3-26.2h34.1l-17,26.2H903.4z"/>
				<path class="st6" d="M933.5,392.7c-0.4,1-1.5,1.8-2.5,1.8c-1,0-1.6-0.8-1.2-1.8c0.4-1,1.5-1.8,2.5-1.8
					C933.3,390.8,933.8,391.6,933.5,392.7z"/>
			</g>
			<path class="st3" d="M893.2,394.6c-1-0.4-8.7,1-10.9,1.4c-7-1.4-30-6-31.1-7.4c-1.3-1.7-4.2-53.5-7.5-54.4c0,0-6.5-3.9-12.8,3.5
				c-6.3,7.5,4.5,61,13.8,63.8c10.3,3.1,40.2-0.5,40.2-0.5v0c2.5,0.8,6.7,1.3,9,2.1c3,1,5.7,0.2,6.3-1
				C900.9,401,894.4,395.1,893.2,394.6z"/>
			<path class="st33" d="M846,327.9c0,0-13.4,1.2-17.2,5.6c-3.9,4.4-5,16.3-5,16.3s11.8,9.5,25.9,5.8L846,327.9z"/>
		</g>
	</g>
	<path class="st34" d="M1135.7,549H1.5c-0.8,0-1.5-0.7-1.5-1.5l0,0c0-0.8,0.7-1.5,1.5-1.5h1134.2c0.8,0,1.5,0.7,1.5,1.5v0
		C1137.2,548.4,1136.5,549,1135.7,549z"/>
	<g>
		<defs>
			<polygon id="SVGID_1_" points="581.3,380.2 356.3,380.2 330.8,288.1 328.9,281.1 327.2,275.1 323.3,260.9 545.1,260.9 
				549.3,275.1 551.2,281.1 553.3,288.1 			"/>
		</defs>
		<clipPath id="SVGID_2_">
			<use xlink:href="#SVGID_1_"  style="overflow:visible;"/>
		</clipPath>
		<g class="st35">
			<path class="st3" d="M462.5,304.9c0,0,1.2-4.9,3.3-5.2c2.1-0.3,5.2-1.6,5.9,0.1c0.7,1.7-5,10.2-7.2,8.1
				C462.2,305.7,462.5,304.9,462.5,304.9z"/>
			<path class="st24" d="M440.2,469.9c0,0,2.3,2.6,3.2,5.7c0.2,0.7-0.2,1.2-0.9,1.2h-10.2c-1,0-2-0.9-2-1.9c0-1.9,0.2-4.7,1.8-6.4
				C434.7,465.9,440.2,469.9,440.2,469.9z"/>
			<path class="st24" d="M455.6,467.2c0,0,3.1,9.5,5,9.6c0.2,0,9.3,0,9.3,0l11.7,0c0,0-1-2.8-4.5-3.4c-3.5-0.6-9.8-3-13-7.4
				C460.6,461.3,455.6,467.2,455.6,467.2z"/>
			<g>
				<path class="st36" d="M435.1,408.8c1.8,5.3,3,9.4,3,11.4c0,8.8,17.3,48.5,17.3,48.5c5.6,2.4,12,0,12,0
					c-1.9-5.5-12.5-54.8-18.1-84.8c-2.4-12.6-4-21.4-4-21.4l-30.7-3.5C414.7,358.9,428.8,390.5,435.1,408.8z"/>
				<path class="st36" d="M414.7,358.9c0,0,14.1,31.6,20.4,49.9l14.2-24.9c-2.4-12.6-4-21.4-4-21.4L414.7,358.9z"/>
			</g>
			<path class="st36" d="M431.1,365.7c0,0,8.4,87.8,10.4,104.7c0,0-5.2,1.6-11.6-0.9c0,0-11.7-40.8-13-53.1
				c-1.3-12.3-14.5-50.3-12.3-53.8C406.8,359.2,431.1,365.7,431.1,365.7z"/>
			<path class="st3" d="M409.5,290.9c0,0,3.2,7.8,3.4,10.1c0.1,2.3-7.3,3.6-11,1.7c-3.8-1.9-3.2-3.6-3.2-3.6s-1.7-7.9-1.4-8.6
				C397.5,289.8,409.5,290.9,409.5,290.9z"/>
			<path class="st37" d="M461.6,303.9c0,0-13.3,16.5-13.8,18.6c-7.6-8.9-19.3-20-19.9-20.4c-1.5-1.2-4.2-2-6.9-2.4
				c-3.7-0.6-7.5-0.7-8.4-0.7c-0.1,0-0.2,0-0.2,0c0.4,1.3-1.1,3.8-4.2,4c-3.7,0.2-9-1.8-9.6-4c0-0.1-8.7,0.4-7.2,16.7
				c0,0.2,0,0.5,0.1,0.7c0.6,5.5,2.3,12.6,5.8,22c1.3,3.4,5.4,28.4,6.6,28.5c0,0,1.1,0.5,3.4,1.2c1.2,0.4,2.9,0.7,4.8,1.1
				c4.2,0.8,10.2,1.5,18.2,1.5c14.6,0,18.3-4.2,18.3-4.2c0.8,0-8.1-20.2-12.8-37.5c4.9,2.8,10,5.5,10.6,5.9c2.4,1.5,4.2,2.1,5.4,2.2
				c0,0,0,0,0,0s0.1,0,0.2,0c0.7,0,1.2-0.2,1.6-0.5c1.1-0.6,2.6-1.9,4.1-4.7c2-3.7,4.4-11.2,6.5-16.2c1.1-2.8,2-5.8,3.2-8.3
				C467.4,307.5,464.5,304.5,461.6,303.9z"/>
			<path class="st38" d="M414,344.6c2.9,12.1-2.6,19.9-6.6,23.6c-2.4-0.7-3.4-1.2-3.4-1.2c-1.2,0-5.4-25.1-6.6-28.5
				c-3.5-9.4-5.2-16.6-5.8-22c0.3-0.4,0.5-0.6,0.5-0.6S409.7,326.6,414,344.6z"/>
			<path class="st39" d="M409.8,291.7c0,0-1.9,4.2-5,4.3c-3.2,0-7.5-4.2-7.5-4.2L409.8,291.7z"/>
			<path class="st3" d="M410.1,291.5c-0.7,0.7-2.3,1.6-3.6,2.2c-1,0.5-2.3,0.5-3.6,0.1c-1.9-0.6-4.8-1.5-5.6-2
				c-1.9-1-2.3-2.9-3.1-5.6c-1-3.2-2-5.7-2.1-7.6c-0.2-2.2,0.9-3.5,4.7-3.8c7.1-0.6,10.5,1.2,11.3,3.6c0.2,0.7,0.4,1.3,0.6,1.9
				C411,287.8,411.1,290.4,410.1,291.5z"/>
			<path class="st36" d="M408.4,279.3c0,0-1.6-1.7-3.7-1.1c-2,0.7-1.8,2.6-5.6,2.3c-3.9-0.3-5.3-2.1-5.7-1.2
				c-0.4,0.9,0.6,6.2,0.6,6.2s-12.3-17.4,3.2-17.4c0,0,15.7-1,12.8,16.7L408.4,279.3z"/>
			<path class="st3" d="M440.9,295.7L440.9,295.7C440.9,295.8,440.9,295.7,440.9,295.7z"/>
			<path class="st40" d="M442.6,270.9c0.1-0.3,0.1-0.5,0.1-0.5C442.6,270.5,442.6,270.7,442.6,270.9z"/>
			<g>
				<polygon class="st36" points="467.2,324.1 464.7,323.7 471.8,283.3 471.8,283.3 				"/>
			</g>
			<path class="st3" d="M463.7,303.4c0,0,2.3,2.3,2.7,1.1s3.4-2.7,3.6-3.3c0.2-0.6-3.4-0.9-3.9-0.9
				C465.5,300.2,463.3,302.6,463.7,303.4z"/>
			<path class="st33" d="M403.9,302.5c0.2,0.1,2.9-0.7,6.7-0.2c0,0,0.3,3.4-0.7,3.6c-1,0.3-3,0-3.4,0
				C406.1,305.8,403.9,302.5,403.9,302.5z"/>
			<path class="st33" d="M406.5,305.9c0,0,11.3,47.4,14.3,50.4c3,3,5.4,4,5.4,4s2.4-2.9,2.3-4.2c0-1.4-18.6-50.1-18.6-50.1H406.5z"
				/>
			<path class="st3" d="M422.3,352.1c0,0,7.7,2.5,10,2.6c2.3,0.1,5-3.9,4.1-5c-0.3-0.3-3.6,1.2-4.6,0.7c-1.4-0.8-3.3-0.2-4.5-0.1
				c-1.2,0.1-5.6-2.4-5.6-2.4L422.3,352.1z"/>
			<path class="st37" d="M425,347.9c-12.5-8.8-21.2-13.2-24-14.6c0.8-6.5,0.4-16.9-2.4-34.4c0,0-12.1,1.3-13.4,5.6
				c-1.9,6.1,2.5,23.1,6.2,36.6c0,0,0.1,0,0.1,0.1c0.3,0.5,0.6,0.9,1.2,1.3c5.1,4.1,32.4,12.1,32.4,12.1
				C427.1,351.8,425,347.9,425,347.9z"/>
			<g>
				<polygon class="st11" points="430.6,349.1 410.1,343.1 409.5,346 431.4,352.2 				"/>
				<polygon class="st12" points="440.9,341.3 430.6,349.1 431.4,352.2 443.3,344 				"/>
				<g>
					<polygon class="st36" points="431.6,353 408.3,345.9 408.3,345.3 431.4,352.2 					"/>
				</g>
				<g>
					<polygon class="st36" points="431.6,353 444.8,343.8 444.3,343.3 431.4,352.2 					"/>
				</g>
			</g>
			<path class="st33" d="M403.9,302.5c0,0-5.4-5.6-5.8-5.2c-0.4,0.4-1,1.6-0.7,1.9c0.3,0.3,7.2,4.2,7.2,4.2L403.9,302.5z"/>
			<path class="st33" d="M410.6,302.2c0,0,1.1-5.5,1.2-5.3c0.2,0.2,1.9,1.7,2,2.1c0.1,0.4-2.2,3.5-3.2,3.7
				C409.6,303,410.6,302.2,410.6,302.2z"/>
		</g>
		<g class="st35">
			<path class="st3" d="M1569.7,312.2c0,0,3-5.7,5.4-6c2.5-0.3,6.5-1.8,6.7,0.1s-8.9,11.8-10.8,9.4
				C1569.1,313.2,1569.7,312.2,1569.7,312.2z"/>
			<path class="st37" d="M1513.8,305.5c0,0,4,16,9.8,27.9c1.6,3.3,17.5,12.9,18.4,13.6c10,7.2,9.8-3.4,9.8-3.4
				c0.6-7-20.4-33.7-21-34.5c-1.4-1.4-4.2-2.3-7.2-2.8C1518.8,305.5,1513.8,305.5,1513.8,305.5z"/>
			<path class="st24" d="M1493,502.6c0,0,1.9,3.1,1.9,6.6c0,0.8-0.6,1.4-1.4,1.4h-11.8c-1.1,0-2-1.1-1.7-2.2
				c0.5-2.2,1.7-5.4,4.1-7.4C1487.9,497.9,1493,502.6,1493,502.6z"/>
			<path class="st24" d="M1511.6,499.4c0,0,0.7,10.9,2.8,11.1c0.3,0,10.7,0,10.7,0l13.4,0c0,0-0.2-3.3-4.1-4
				c-3.9-0.7-10.4-3.4-12.8-8.5C1519.2,492.6,1511.6,499.4,1511.6,499.4z"/>
			<g>
				<path class="st41" d="M1506,432.1c0.5,6.1,0.5,10.8-0.1,13.1c-2.8,10.1,5,55.9,5,55.9c5.7,2.7,13.9,0,13.9,0
					c-0.5-6.3,2.5-63.1,5.3-97.8c1.2-14.5,2.1-24.7,2.1-24.7l-34.3-4C1497.8,374.6,1504.4,411,1506,432.1z"/>
				<path class="st41" d="M1497.8,374.6c0,0,6.5,36.4,8.2,57.5l24.1-28.8c1.2-14.5,2.1-24.7,2.1-24.7L1497.8,374.6z"/>
			</g>
			<path class="st15" d="M1514.7,382.4c0,0-17.4,101.2-20.4,120.8c0,0-6.5,1.8-13.2-1c0,0-0.9-47,1.4-61.2c2.3-14.2-1.2-57.9,2.5-62
				C1488.7,374.9,1514.7,382.4,1514.7,382.4z"/>
			<path class="st3" d="M1512.9,296.1c0,0,1.3,9,0.7,11.7s-9.5,4.1-13.3,1.9c-3.7-2.2-2.5-4.2-2.5-4.2s0.5-9.1,1-9.9
				C1499.4,294.9,1512.9,296.1,1512.9,296.1z"/>
			<path class="st37" d="M1534.8,383.4c0,0-5.6,4.8-22.4,4.8c-9.2,0-15.9-0.8-20.5-1.7c-2.2-0.4-3.9-0.9-5.2-1.3
				c-2.5-0.8-3.6-1.4-3.6-1.4c-1.4,0,1.5-28.9,1.1-32.8c-1.1-10.8-0.9-19.1,0.1-25.4c0-0.3,0.1-0.6,0.1-0.8
				c3.3-18.8,13.5-19.4,13.5-19.3c0,2.5,5.4,4.9,9.8,4.6c3.7-0.3,6.1-3.1,6.1-4.6c0-0.1,1.2,0.2,3.1,0.5c9.3,1.6,14.8,15.5,14.8,34
				C1531.6,360,1535.7,383.4,1534.8,383.4z"/>
			<path class="st38" d="M1501.5,358c-0.4,14-9.2,22.9-14.9,27.2c-2.5-0.8-3.6-1.4-3.6-1.4c-1.4,0,1.5-28.9,1.1-32.8
				c-1.1-10.8-0.9-19.1,0.1-25.4c0.5-0.4,0.8-0.7,0.8-0.7S1502.1,337.3,1501.5,358z"/>
			<path class="st39" d="M1513,297.1c0,0-3.5,4.9-7.1,4.9c-3.7,0-7.4-4.9-7.4-4.9L1513,297.1z"/>
			<path class="st3" d="M1513.4,296.9c-1,0.8-3.1,1.8-4.9,2.5c-1.3,0.5-2.8,0.6-4.2,0.1c-2-0.7-5.1-1.8-5.9-2.3
				c-1.8-1.1-1.7-3.4-1.8-6.5c-0.1-3.7-0.5-6.6-0.1-8.7c0.5-2.6,2.1-4,6.6-4.4c8.3-0.7,11.8,1.4,11.9,4.2c0,0.7,0.1,1.5,0.1,2.1
				C1515.6,292.5,1514.9,295.6,1513.4,296.9z"/>
			<path class="st36" d="M1515.2,282.7c0,0-1.4-2-3.9-1.2c-2.6,0.8-2.8,3-7.2,2.6c-4.4-0.4-5.4-2.4-6.2-1.4s-1.2,7.2-1.2,7.2
				s-8.8-20.1,9-20.1c0,0,18.4-1.1,9.6,19.3V282.7z"/>
			<path class="st37" d="M1497.9,305.5c0,0-14.4,1.5-17.2,6.4c-4,7-4.2,26.6-4.2,42.2c0,0,6.1,4.6,10.3-2.2
				C1490.7,345.4,1494.9,333.3,1497.9,305.5z"/>
			<path class="st3" d="M1547.7,301.7L1547.7,301.7C1547.7,301.7,1547.7,301.7,1547.7,301.7z"/>
			<path class="st40" d="M1557.3,273c0.1-0.3,0.3-0.6,0.3-0.6C1557.4,272.6,1557.3,272.8,1557.3,273z"/>
			<g>
				<polygon class="st36" points="1574.2,330.6 1571.7,330.2 1580.3,283.5 1581.2,283.7 				"/>
			</g>
			<path class="st3" d="M1571.2,312.5c0,0,3.4,1,3.5-0.5c0.1-1.5,3.1-4.6,3.2-5.4c0.1-0.7-4.2,1.1-4.8,1.3
				C1572.4,308.3,1570.6,311.9,1571.2,312.5z"/>
			<path class="st37" d="M1574.5,315.3c0,0-2.3-3.5-5.6-4.1c0,0-7.1,7.5-15.4,14c-6.1,4.8-7.9,10.4-8.5,13.8
				c-1.6,8.1,2.4,10.5,2.4,10.5s3.2,0.4,8.4-5.9c3.5-4.3,8.5-12.9,12.4-18.7C1570.4,321.7,1572.4,318.2,1574.5,315.3z"/>
			<path class="st33" d="M1502.9,309.5c0.2,0.1,3.6-0.8,7.8-0.3c0,0-0.7,3.9-1.9,4.2c-1.2,0.3-3.5,0.1-3.9,0
				C1504.4,313.4,1502.9,309.5,1502.9,309.5z"/>
			<path class="st33" d="M1504.8,313.4c0,0-1.6,54.6,0.9,58.1c2.5,3.5,5,4.6,5,4.6s3.6-3.3,4-4.9c0.4-1.6-5.9-57.8-5.9-57.8H1504.8z
				"/>
			<path class="st3" d="M1508.8,366.7c0,0,8.1,2.9,10.7,3c2.6,0.1,7-4.4,6.3-5.8c-0.2-0.4-4.5,1.4-5.5,0.8c-1.4-0.9-3.8-0.2-5.1-0.1
				c-1.4,0.2-5.8-2.7-5.8-2.7L1508.8,366.7z"/>
			<path class="st37" d="M1489.1,344.6c0,0,9.9,4.9,24.1,17.3c0,0,1.2,4.5-2,7.8c0,0-29-9.2-33.6-13.9
				C1472.9,351,1484.8,343.7,1489.1,344.6z"/>
			<g>
				<polygon class="st11" points="1519.2,363.3 1497.5,356.3 1495.8,359.7 1519.2,366.8 				"/>
				<polygon class="st12" points="1533.6,354.2 1519.2,363.3 1519.2,366.8 1535.4,357.4 				"/>
				<g>
					<polygon class="st36" points="1519.2,367.8 1494.5,359.6 1494.8,358.9 1519.2,366.8 					"/>
				</g>
				<g>
					<polygon class="st36" points="1519.2,367.8 1537.3,357.2 1536.8,356.5 1519.2,366.8 					"/>
				</g>
			</g>
			<path class="st33" d="M1502.9,309.5c0,0-4.5-6.4-5.1-6c-0.6,0.4-1.6,1.8-1.4,2.2c0.2,0.4,7,4.9,7,4.9L1502.9,309.5z"/>
			<path class="st33" d="M1510.7,309.2c0,0,2.9-6.4,3.1-6.1c0.1,0.2,1.7,2,1.6,2.4c0,0.4-3.6,4-4.8,4.3
				C1509.3,310.1,1510.7,309.2,1510.7,309.2z"/>
		</g>
	</g>
</g>
</svg>
