<?xml version="1.0" encoding="utf-8"?>
<!-- Generator: Adobe Illustrator 22.1.0, SVG Export Plug-In . SVG Version: 6.00 Build 0)  -->
<svg version="1.1" id="Layer_1" xmlns="http://www.w3.org/2000/svg" xmlns:xlink="http://www.w3.org/1999/xlink" x="0px" y="0px"
	 viewBox="0 0 1097.6 494.4" style="enable-background:new 0 0 1097.6 494.4;" xml:space="preserve">
<title>Asset 2</title>
<g>
	
		<image style="overflow:visible;" width="640" height="640" xlink:href="../../../../Instagram Posts/Assets/wilmargroup.png"  transform="matrix(0.5291 0 0 0.5291 507.6539 39.2)">
	</image>
	<g id="Layer_2_1_">
		<g id="a02f2390-8fa7-48a9-96f1-2ec5f63ecbc1">
			
				<image style="overflow:visible;enable-background:new    ;" width="1200" height="1311" xlink:href="../../../../Instagram Posts/Assets/Makara_UI.png"  transform="matrix(0.1 0 0 0.1 0 311)">
			</image>
			
				<image style="overflow:visible;enable-background:new    ;" width="512" height="512" xlink:href="../../../../Instagram Posts/Assets/Logo_Institut_Teknologi_Bandung.png"  transform="matrix(0.25 0 0 0.25 148.74 311)">
			</image>
			
				<image style="overflow:visible;enable-background:new    ;" width="250" height="140" xlink:href="../../../../Instagram Posts/Assets/1631871543unilever unioleo.png"  transform="matrix(0.78 0 0 0.78 903 0)">
			</image>
			
				<image style="overflow:visible;enable-background:new    ;" width="700" height="393" xlink:href="../../../../Instagram Posts/Assets/pt-bukit-asam-persero-tbk.jpg"  transform="matrix(0.34 0 0 0.34 854 136.26)">
			</image>
			
				<image style="overflow:visible;enable-background:new    ;" width="250" height="201" xlink:href="../../../../Instagram Posts/Assets/images12.png"  transform="matrix(0.87 0 0 0.87 685.96 294.67)">
			</image>
			
				<image style="overflow:visible;enable-background:new    ;" width="380" height="380" xlink:href="../../../../Instagram Posts/Assets/Badge_ITS.png"  transform="matrix(0.33 0 0 0.33 302 311)">
			</image>
			
				<image style="overflow:visible;enable-background:new    ;" width="1200" height="1226" xlink:href="../../../../Instagram Posts/Assets/1200px-Logo_UPH.gif"  transform="matrix(0.1 0 0 0.1 453.5 311)">
			</image>
			
				<image style="overflow:visible;enable-background:new    ;" width="222" height="227" xlink:href="../../../../Instagram Posts/Assets/4cdb2644ba513b05fd21236fa9d5b909.jpg"  transform="matrix(0.58 0 0 0.58 592.56 303.41)">
			</image>
			
				<image style="overflow:visible;enable-background:new    ;" width="400" height="400" xlink:href="../../../../Instagram Posts/Assets/ljmu.png"  transform="matrix(0.56 0 0 0.56 867 269.42)">
			</image>
		</g>
	</g>
	
		<image style="overflow:visible;" width="1200" height="705" xlink:href="../../../../Instagram Posts/Assets/1200px-Wings_(Indonesian_company)_logo.svg.png"  transform="matrix(0.1277 0 0 0.1277 0 19.2)">
	</image>
	
		<image style="overflow:visible;" width="3182" height="764" xlink:href="../../../../Instagram Posts/Assets/Pertamina.png"  transform="matrix(0.109 0 0 0.109 172.7854 22.5583)">
	</image>
	
		<image style="overflow:visible;" width="1200" height="226" xlink:href="../../../../Instagram Posts/Assets/Exxon_Mobil_Logo.svg.png"  transform="matrix(0.2573 0 0 0.2573 566.9327 39.915)">
	</image>
	
		<image style="overflow:visible;" width="2409" height="587" xlink:href="../../../../Instagram Posts/Assets/cap_logo.png"  transform="matrix(0.1925 0 0 0.1925 27 152)">
	</image>
</g>
</svg>
