<svg width="21" height="17" viewBox="0 0 21 17" fill="none" xmlns="http://www.w3.org/2000/svg">
<g clip-path="url(#clip0_31_849)">
<path d="M11.2381 6.32972C11.2381 6.58658 11.2216 6.84316 11.1886 7.09779L11.2063 6.96367C11.14 7.46762 11.0091 7.96042 10.817 8.42931L10.8666 8.30848C10.6776 8.76607 10.4322 9.19692 10.1361 9.59046L10.2128 9.48856C9.91781 9.87875 9.57581 10.2291 9.19494 10.5313L9.2944 10.4528C8.91022 10.756 8.48966 11.0075 8.04303 11.2011L8.16097 11.1503C7.70328 11.3471 7.22225 11.4812 6.73033 11.5491L6.86085 11.531C6.36319 11.5982 5.85906 11.5982 5.3614 11.531L5.49193 11.5491C5.00013 11.4812 4.51923 11.3471 4.06167 11.1503L4.17962 11.2011C3.73298 11.0075 3.31243 10.756 2.92824 10.4528L3.02771 10.5313C2.64693 10.229 2.30494 9.87866 2.00986 9.48856L2.08849 9.59046C1.7917 9.19787 1.54516 8.76799 1.35489 8.3113L1.40442 8.43213C1.21235 7.96324 1.08148 7.47044 1.01521 6.96649L1.0329 7.10061C0.967246 6.59077 0.967246 6.07431 1.0329 5.56448L1.01521 5.6982C1.08148 5.19425 1.21235 4.70145 1.40442 4.23256L1.35489 4.35339C1.54388 3.89583 1.78937 3.46499 2.08535 3.0714L2.00672 3.1733C2.30179 2.78308 2.64377 2.43259 3.02456 2.13016L2.9251 2.21071C3.30919 1.90735 3.72976 1.65585 4.17647 1.46238L4.05853 1.51313C4.51603 1.31618 4.99695 1.1821 5.48878 1.1144L5.35826 1.13252C5.85592 1.06526 6.36005 1.06526 6.85771 1.13252L6.72718 1.1144C7.21914 1.1821 7.70019 1.31618 8.15783 1.51313L8.03989 1.46238C8.48659 1.65585 8.90717 1.90735 9.29126 2.21071L9.19179 2.13016C9.57268 2.43249 9.91468 2.78299 10.2096 3.1733L10.133 3.0714C10.4291 3.46489 10.6746 3.89575 10.8634 4.35339L10.8139 4.23256C11.006 4.70145 11.1368 5.19425 11.2031 5.6982L11.1854 5.56448C11.2184 5.8191 11.235 6.07568 11.235 6.33254C11.2369 6.46575 11.2885 6.59316 11.3792 6.68858C11.4718 6.78216 11.5963 6.83504 11.7264 6.83599C11.9925 6.82351 12.2182 6.61488 12.2178 6.33254C12.2184 5.68294 12.1201 5.03721 11.9265 4.41863C11.7399 3.8217 11.4657 3.25729 11.1135 2.74477C10.928 2.47447 10.7231 2.21868 10.5006 1.97953C10.2752 1.74394 10.0329 1.52611 9.77561 1.32786C8.52552 0.363081 6.9612 -0.0723829 5.40641 0.111594C3.85162 0.295571 2.42539 1.0849 1.4229 2.31623C1.00524 2.82218 0.671598 3.39502 0.435325 4.01185C0.201415 4.60776 0.0600066 5.23751 0.0162345 5.87823C-0.0736075 7.1478 0.216668 8.41525 0.848316 9.5114C1.47996 10.6076 2.42294 11.4803 3.55137 12.0131C4.15084 12.3008 4.79354 12.4825 5.45222 12.5503C6.68903 12.6885 7.93753 12.4362 9.03053 11.8274C10.1235 11.2185 11.0088 10.282 11.5679 9.1434C11.8476 8.57638 12.0398 7.96838 12.1376 7.34105C12.1897 7.00653 12.2172 6.66847 12.2198 6.32972C12.2183 6.19721 12.1672 6.07034 12.0771 5.9753C11.9845 5.88152 11.8597 5.8286 11.7295 5.82789C11.463 5.83836 11.2385 6.04739 11.2381 6.32972Z" fill="#494949"/>
<path d="M9.88988 10.594L10.5547 11.2751L12.0801 12.8378L13.7596 14.5584L14.8997 15.7264C15.0459 15.8762 15.1627 16.0224 15.3994 16.0297C15.4721 16.0321 15.5452 16.0297 15.618 16.0297L17.0246 16.0353L19.2482 16.0446L21.6704 16.0542L23.7147 16.0627L24.7916 16.0671H24.8407C25.0978 16.0671 25.3439 15.8347 25.3321 15.5637C25.3203 15.2926 25.1163 15.061 24.8407 15.0602L23.8972 15.0562L21.6445 15.0469L18.9208 15.0369L16.5619 15.0272C16.1806 15.0272 15.798 15.0155 15.4167 15.0228H15.401L15.7485 15.1702L15.2335 14.6442L13.9994 13.3799L12.5117 11.8551L11.2211 10.5328C11.0119 10.319 10.8063 10.1007 10.592 9.88841L10.5834 9.87914C10.4014 9.69267 10.068 9.67776 9.8883 9.87914C9.70864 10.0805 9.69409 10.3923 9.8883 10.5912L9.88988 10.594Z" fill="#494949"/>
</g>
<defs>
<clipPath id="clip0_31_849">
<rect width="21" height="16" fill="white" transform="translate(0 0.0690918)"/>
</clipPath>
</defs>
</svg>
